PathFileType	4	(X/Y/Z)	s01c0201.trc
DataRate	CameraRate	NumFrames	NumMarkers	Units	OrigDataRate	OrigDataStartFrame	OrigNumFrames
200	200	5	48	mm	200	1250	2000
Frame#	Time	racr			lacr			c7			jug			rlel			rdr			llel			ldr			s2			lic			ric			lasi			rasi			rpsi			lpsi			rgt			lgt			rth1			rth2			rth3			rth4			rlfc			rsh1			rsh2			rsh3			rsh4			rlmal			rmmal			rcal			rtoe			rmt5			lth1			lth2			lth4			lth3			llfc			lsh1			lsh2			lsh3			lsh4			llmal			lmmal			lcal			ltoe			lmt5			SBIKE			LBIKE			RBIKE			
		X1	Y1	Z1	X2	Y2	Z2	X3	Y3	Z3	X4	Y4	Z4	X5	Y5	Z5	X6	Y6	Z6	X7	Y7	Z7	X8	Y8	Z8	X9	Y9	Z9	X10	Y10	Z10	X11	Y11	Z11	X12	Y12	Z12	X13	Y13	Z13	X14	Y14	Z14	X15	Y15	Z15	X16	Y16	Z16	X17	Y17	Z17	X18	Y18	Z18	X19	Y19	Z19	X20	Y20	Z20	X21	Y21	Z21	X22	Y22	Z22	X23	Y23	Z23	X24	Y24	Z24	X25	Y25	Z25	X26	Y26	Z26	X27	Y27	Z27	X28	Y28	Z28	X29	Y29	Z29	X30	Y30	Z30	X31	Y31	Z31	X32	Y32	Z32	X33	Y33	Z33	X34	Y34	Z34	X35	Y35	Z35	X36	Y36	Z36	X37	Y37	Z37	X38	Y38	Z38	X39	Y39	Z39	X40	Y40	Z40	X41	Y41	Z41	X42	Y42	Z42	X43	Y43	Z43	X44	Y44	Z44	X45	Y45	Z45	X46	Y46	Z46	X47	Y47	Z47	X48	Y48	Z48	
1250	6.2500	523.523293	1251.257605	-79.999549	545.581605	1227.691727	-446.213753	514.262688	1354.994931	-270.119519	499.597841	1188.466058	-262.329945	463.439936	985.785326	31.828496	654.052267	872.118937	-73.260725	462.746901	978.885729	-581.889452	650.086019	879.200205	-464.205865	-14.440198	1145.857873	-270.947140	151.375673	1150.225328	-451.957355	135.210591	1155.565016	-112.227254	157.496846	1104.049748	-420.949323	167.648272	1108.523259	-139.838248	13.760625	1187.868190	-221.092072	9.751928	1188.360150	-326.051418	91.936326	1035.732894	-86.877767	112.245338	1032.783082	-467.013404	168.434634	924.195969	-68.444081	219.583489	858.999833	-73.953361	269.785927	784.710588	-85.748864	264.518504	890.932975	-87.044343	314.102934	677.748774	-102.952300	280.040584	566.903550	-66.635548	269.600857	482.667900	-69.203580	250.307605	396.174318	-76.871936	317.061434	475.371537	-106.171729	213.419266	275.746789	-95.899178	264.399938	290.185999	-171.930611	168.324198	261.048547	-143.493379	427.104613	179.758056	-143.196386	322.406496	170.075387	-67.825299	213.385141	965.268614	-461.065710	301.913845	954.291850	-463.016809	310.270940	1007.116862	-452.025057	384.257922	933.852182	-446.402065	470.040619	862.953751	-413.533139	377.325150	807.877826	-445.577120	312.209240	751.702658	-437.532312	245.548351	699.299079	-424.653200	348.791920	714.065300	-405.739024	148.461833	622.290569	-409.899881	175.209968	612.742274	-327.272347	90.448304	633.349839	-364.512133	262.675219	414.154312	-379.968449	175.631622	480.555291	-442.244252	-228.029223	891.572850	-252.894254	-21.370397	80.404334	-454.138741	-21.380712	80.272214	-54.029802	
1251	6.2550	525.335268	1251.407705	-82.349057	544.453672	1228.077110	-448.503855	514.488963	1355.187356	-272.352128	500.067119	1188.745254	-264.685328	463.899472	987.169123	31.628412	654.092450	872.323258	-73.276789	461.901031	978.562861	-582.270333	649.651289	879.500703	-464.263704	-14.608548	1145.711492	-269.542603	150.810904	1151.053595	-451.874856	136.290082	1155.447006	-112.103104	157.093214	1104.998912	-420.687455	167.608734	1108.402412	-139.355681	13.842915	1187.964456	-219.824598	9.643379	1188.516968	-324.676263	91.007382	1035.149420	-86.098327	112.082251	1033.818800	-466.603422	165.360235	923.336648	-66.683253	215.221908	857.197891	-71.810042	264.189490	782.012727	-83.134815	260.440638	888.215243	-84.239945	307.251315	674.541903	-99.953928	272.440007	564.030973	-63.971649	261.881049	479.792088	-66.613315	242.492512	393.358549	-74.504575	309.852014	472.376406	-102.871066	206.358556	272.589498	-94.449407	258.141803	287.341382	-170.528655	161.548011	259.492141	-141.732810	418.401765	172.590160	-143.424460	314.037835	164.732017	-67.378287	213.629441	968.125372	-460.830401	302.396287	959.170475	-463.396001	309.657892	1012.140712	-452.743394	385.282989	940.548882	-447.180828	474.887725	873.724269	-414.101391	381.611147	817.776313	-446.904662	317.127113	760.206655	-438.044785	251.189467	706.842600	-425.014550	354.313710	722.751418	-406.902065	155.066404	627.347662	-409.984135	182.243896	618.588559	-327.362611	96.694706	637.503539	-364.557578	272.583739	421.233054	-379.960986	184.579254	486.189868	-442.174513	-228.094399	891.597167	-252.791052	-21.378539	80.399718	-454.220035	-21.390285	80.288397	-54.016342	
1252	6.2600	527.179645	1251.466576	-84.770129	543.253964	1228.377526	-450.915038	514.781088	1355.304691	-274.626790	500.362485	1188.960413	-267.035353	464.478452	988.438523	31.332637	654.185542	872.530287	-73.404304	460.990798	978.163960	-582.669537	649.567624	880.110198	-464.217061	-14.728241	1145.965186	-268.306627	150.233424	1152.117155	-451.731665	137.276502	1155.466161	-112.023876	156.665138	1106.080682	-420.421382	167.521962	1108.407795	-138.898987	13.848591	1188.121546	-218.607137	9.556388	1188.788561	-323.378235	90.034934	1034.732633	-85.365741	111.676146	1035.216798	-466.196234	162.392727	922.707218	-64.804931	211.112389	855.786205	-69.660306	258.930598	779.860868	-80.496128	257.042013	886.016628	-81.983367	300.726660	672.060142	-96.940964	265.101467	561.670553	-61.333333	254.275008	477.534007	-64.127631	234.791093	391.075883	-72.339034	302.875491	469.951413	-99.525862	199.790825	270.635406	-92.616380	251.821254	285.136102	-169.130792	154.756065	258.777661	-139.783864	409.412602	165.963532	-143.696917	305.340409	160.208956	-66.943478	213.902259	971.014279	-460.543311	302.821415	963.797016	-463.756128	309.095729	1017.029430	-453.254090	386.152326	947.028380	-447.836664	477.781686	883.424246	-415.163554	385.746687	826.350551	-447.110250	321.891955	768.308681	-438.650287	256.706988	713.903872	-425.356953	359.743413	730.978371	-407.957789	161.586303	631.711432	-410.077894	189.053758	623.686043	-327.495322	102.920568	640.968494	-364.598923	282.797079	427.978546	-380.083941	193.604189	491.295232	-442.189353	-228.132614	891.633861	-252.729418	-21.390747	80.441456	-454.201820	-21.404256	80.305631	-54.018148	
1253	6.2650	529.023806	1251.322309	-87.259683	542.041922	1228.708470	-453.338580	515.112864	1355.328773	-276.860158	500.696561	1189.141161	-269.196355	465.136029	989.530691	31.038552	654.329516	872.655880	-73.580429	460.052535	977.766708	-583.075265	648.764448	880.047229	-464.563331	-15.013884	1146.323117	-267.527401	149.595538	1153.262170	-451.598270	138.098825	1155.614387	-112.033652	156.214531	1107.279744	-420.143861	167.370084	1108.499815	-138.378825	13.852315	1188.416500	-217.491717	9.475738	1189.193388	-322.167999	88.975923	1034.539751	-84.603421	111.388757	1036.800117	-465.920847	159.580448	922.404935	-62.853051	207.277694	854.738904	-67.469863	254.054493	778.037013	-77.314797	253.933295	884.452380	-79.576251	294.783401	670.214348	-93.923336	258.180425	559.850788	-58.727908	247.025544	475.711602	-61.778426	227.389799	389.360584	-70.215433	296.187824	467.891791	-96.313003	192.830573	269.383696	-91.250060	245.464594	283.553181	-167.751492	147.989083	259.083560	-137.373555	400.221380	160.087275	-143.856608	296.504050	156.246284	-66.562803	214.143180	973.957189	-460.317998	303.208962	968.374973	-464.102711	308.551295	1021.837207	-453.960016	386.902330	953.201867	-448.396554	481.520116	893.274239	-415.730961	389.322882	834.902599	-447.707997	326.361708	775.889194	-439.446598	262.085695	720.604616	-425.812528	364.992747	738.902364	-409.232405	168.014871	635.342966	-410.184756	195.894242	628.260292	-327.679629	109.320501	643.596120	-364.377796	293.181473	434.152807	-380.056527	202.779548	495.743311	-442.300970	-228.174211	891.664056	-252.664390	-21.391824	80.483646	-454.203648	-21.414629	80.311610	-54.008322	
1254	6.2700	530.235338	1250.679993	-90.713960	540.853536	1228.955016	-455.753869	515.449660	1355.309205	-279.101411	500.985642	1189.148172	-271.414333	465.786605	990.513938	30.780766	654.561251	872.758365	-73.787231	459.056510	977.330758	-583.494662	648.302727	880.287501	-464.773491	-15.355952	1146.700348	-266.947627	148.926798	1154.566127	-451.330099	138.766812	1155.893097	-112.044502	155.738542	1108.589859	-419.856301	167.132861	1108.680173	-137.796095	13.829252	1188.857290	-216.487595	9.388360	1189.746004	-321.069076	87.828309	1034.635978	-83.983280	111.280436	1038.515159	-465.778616	156.854782	922.291562	-61.282317	203.826240	854.191825	-65.281847	249.688802	776.880221	-74.708310	250.893818	883.229592	-77.098977	289.333853	668.944540	-91.060082	251.717696	558.629776	-56.303538	240.277397	474.532494	-59.541302	220.268429	388.317318	-68.349078	289.922789	466.497513	-93.274379	186.078034	268.713577	-89.633942	239.098155	282.575551	-166.405134	141.385393	259.982252	-136.069639	390.874730	154.378895	-143.935945	287.376641	152.936383	-66.147017	214.369157	976.918844	-460.185683	303.608586	972.740353	-464.247542	308.077408	1026.304611	-454.415866	387.545750	959.088276	-448.765477	482.585961	901.872202	-417.479079	392.023152	842.812846	-449.064427	330.630542	783.243317	-439.862166	267.355861	726.649109	-426.268209	369.962210	746.245032	-410.925191	174.343238	638.206199	-410.310562	201.683810	631.651049	-327.832540	115.421528	646.331501	-363.898949	303.716140	440.004446	-380.255831	212.352230	499.416333	-442.590381	-228.225286	891.694614	-252.646531	-21.402466	80.514193	-454.185302	-21.421414	80.328244	-53.998078	
